# xmcd
#
# Track frame offsets:
# 150
# 14979
# 30659
# 64688
# 119926
# 146530
# 158276
#
# Disc length: 2278 seconds
#
#
# Revision: 0
# Processed by: cddbd v1.5.1PL0 Copyright (c) Steve Scherf et al.
# Submitted via: FreeRIP 2.941 
#
DISCID=5f08e407
DTITLE=Express To Oblivion - Transatlantic Railroad
DYEAR=1969
DGENRE=Alternative
TTITLE0=Camp Towanga
TTITLE1=Fred Chicken Blues
TTITLE2=Tehama Steet Song
TTITLE3=Elephant
TTITLE4=Old English 800
TTITLE5=Irahs
TTITLE6=Good Times
EXTD=Typed By [aGu]
EXTT0=
EXTT1=
EXTT2=
EXTT3=
EXTT4=
EXTT5=
EXTT6=
PLAYORDER=
